<svg width="300" height="300" viewBox="0 0 300 300" fill="none" xmlns="http://www.w3.org/2000/svg">
  <rect width="300" height="300" fill="#FAE8D8" />
  <path d="M88.5 100.5C88.5 95.5 90.5 91.5 94.5 88.5C98.5 85.5 103.5 84 109.5 84C115.5 84 120.5 85.5 124.5 88.5C128.5 91.5 130.5 95.5 130.5 100.5C130.5 105.5 128.5 109.5 124.5 112.5C120.5 115.5 115.5 117 109.5 117C103.5 117 98.5 115.5 94.5 112.5C90.5 109.5 88.5 105.5 88.5 100.5ZM94.5 100.5C94.5 104.5 96 107.5 99 109.5C102 111.5 105.5 112.5 109.5 112.5C113.5 112.5 117 111.5 120 109.5C123 107.5 124.5 104.5 124.5 100.5C124.5 96.5 123 93.5 120 91.5C117 89.5 113.5 88.5 109.5 88.5C105.5 88.5 102 89.5 99 91.5C96 93.5 94.5 96.5 94.5 100.5Z" fill="#3C2A21" />
  <path d="M137.5 84.5H143.5V111.5H167.5V116.5H137.5V84.5Z" fill="#3C2A21" />
  <path d="M173.5 84.5H179.5V116.5H173.5V84.5Z" fill="#3C2A21" />
  <path d="M187.5 84.5H193.5V111.5H217.5V116.5H187.5V84.5Z" fill="#3C2A21" />
  <path d="M223.5 84.5H229.5V116.5H223.5V84.5Z" fill="#3C2A21" />
  <path d="M88.5 134.5H94.5V166.5H88.5V134.5Z" fill="#3C2A21" />
  <path d="M102.5 134.5H108.5V161.5H132.5V166.5H102.5V134.5Z" fill="#3C2A21" />
  <path d="M138.5 134.5H144.5V166.5H138.5V134.5Z" fill="#3C2A21" />
  <path d="M152.5 134.5H158.5V161.5H182.5V166.5H152.5V134.5Z" fill="#3C2A21" />
  <path d="M188.5 134.5H194.5V166.5H188.5V134.5Z" fill="#3C2A21" />
  <path d="M202.5 134.5H208.5V161.5H232.5V166.5H202.5V134.5Z" fill="#3C2A21" />
  <path d="M150 190C170 190 190 200 200 220" stroke="#3C2A21" stroke-width="2" />
  <path d="M200 220C210 240 220 250 240 250" stroke="#3C2A21" stroke-width="2" />
</svg>